# xmcd
#
# Track frame offsets: 
#        150
#        16673
#        33713
#        55426
#        76621
#        97268
#        121898
#        143453
#        164581
#        184246
#        199741
#        216346
#        236363
#
# Disc length: 3460 seconds
#
# Revision: 0
# Processed by: cddbd v1.5.2PL0 Copyright (c) Steve Scherf et al.
# Submitted via: ExactAudioCopy v0.95a5
#
DISCID=af0d820d
DTITLE=Stephen Cummings - In The Big Room
DYEAR=2007
DGENRE=Blues
TTITLE0=You're So In The Past
TTITLE1=Do You Still Love Me
TTITLE2=Suspicious Minds
TTITLE3=Don't Throw Stones
TTITLE4=When Love Comes Back To Haunt You
TTITLE5=She Set Fire To The House
TTITLE6=I Fell From A Great Height
TTITLE7=The Big Room
TTITLE8=Very Strange Very Cool
TTITLE9=Little Girl On A Sofa
TTITLE10=I Need You Tonight
TTITLE11=Who Listens To The Radio
TTITLE12=How Come
EXTD=
EXTT0=
EXTT1=
EXTT2=
EXTT3=
EXTT4=
EXTT5=
EXTT6=
EXTT7=
EXTT8=
EXTT9=
EXTT10=
EXTT11=
EXTT12=
PLAYORDER=
